<mxfile host="app.diagrams.net" modified="2023-04-01T08:54:54.893Z" agent="Mozilla/5.0 (Windows NT 10.0; Win64; x64) AppleWebKit/537.36 (KHTML, like Gecko) Chrome/111.0.0.0 Safari/537.36 Edg/111.0.1661.54" etag="WxVLfo18wzMsgFPQJxd9" version="21.1.2" type="device">
  <diagram id="C5RBs43oDa-KdzZeNtuy" name="Page-1">
    <mxGraphModel dx="1377" dy="788" grid="1" gridSize="10" guides="1" tooltips="1" connect="1" arrows="1" fold="1" page="1" pageScale="1" pageWidth="827" pageHeight="1169" math="0" shadow="0">
      <root>
        <mxCell id="WIyWlLk6GJQsqaUBKTNV-0" />
        <mxCell id="WIyWlLk6GJQsqaUBKTNV-1" parent="WIyWlLk6GJQsqaUBKTNV-0" />
        <mxCell id="WIyWlLk6GJQsqaUBKTNV-3" value="Mulai" style="rounded=1;whiteSpace=wrap;html=1;fontSize=12;glass=0;strokeWidth=1;shadow=0;" parent="WIyWlLk6GJQsqaUBKTNV-1" vertex="1">
          <mxGeometry x="10" y="30" width="120" height="40" as="geometry" />
        </mxCell>
        <mxCell id="Zj45orj_NK1SDxvDNARs-12" value="" style="edgeStyle=orthogonalEdgeStyle;rounded=0;orthogonalLoop=1;jettySize=auto;html=1;" edge="1" parent="WIyWlLk6GJQsqaUBKTNV-1" source="juYu4V3Ow9eaGNVBh7fN-0" target="Zj45orj_NK1SDxvDNARs-0">
          <mxGeometry relative="1" as="geometry" />
        </mxCell>
        <mxCell id="juYu4V3Ow9eaGNVBh7fN-0" value="Anak berangkat ke toko" style="rounded=0;whiteSpace=wrap;html=1;" parent="WIyWlLk6GJQsqaUBKTNV-1" vertex="1">
          <mxGeometry x="390" y="20" width="120" height="60" as="geometry" />
        </mxCell>
        <mxCell id="Zj45orj_NK1SDxvDNARs-18" style="edgeStyle=orthogonalEdgeStyle;rounded=0;orthogonalLoop=1;jettySize=auto;html=1;exitX=0.5;exitY=1;exitDx=0;exitDy=0;entryX=0;entryY=0.5;entryDx=0;entryDy=0;" edge="1" parent="WIyWlLk6GJQsqaUBKTNV-1" source="juYu4V3Ow9eaGNVBh7fN-4" target="Zj45orj_NK1SDxvDNARs-1">
          <mxGeometry relative="1" as="geometry" />
        </mxCell>
        <mxCell id="juYu4V3Ow9eaGNVBh7fN-4" value="Anak membeli 6 biji telur&amp;nbsp;" style="rounded=0;whiteSpace=wrap;html=1;" parent="WIyWlLk6GJQsqaUBKTNV-1" vertex="1">
          <mxGeometry x="160" y="270" width="120" height="60" as="geometry" />
        </mxCell>
        <mxCell id="Zj45orj_NK1SDxvDNARs-22" style="edgeStyle=orthogonalEdgeStyle;rounded=0;orthogonalLoop=1;jettySize=auto;html=1;exitX=0.5;exitY=1;exitDx=0;exitDy=0;entryX=1;entryY=0.5;entryDx=0;entryDy=0;" edge="1" parent="WIyWlLk6GJQsqaUBKTNV-1" source="juYu4V3Ow9eaGNVBh7fN-7" target="juYu4V3Ow9eaGNVBh7fN-22">
          <mxGeometry relative="1" as="geometry" />
        </mxCell>
        <mxCell id="juYu4V3Ow9eaGNVBh7fN-7" value="Anak membeli sebotol susu" style="rounded=0;whiteSpace=wrap;html=1;" parent="WIyWlLk6GJQsqaUBKTNV-1" vertex="1">
          <mxGeometry x="530" y="375" width="120" height="60" as="geometry" />
        </mxCell>
        <mxCell id="juYu4V3Ow9eaGNVBh7fN-9" value="tidak ada" style="text;html=1;align=center;verticalAlign=middle;resizable=0;points=[];autosize=1;strokeColor=none;fillColor=none;" parent="WIyWlLk6GJQsqaUBKTNV-1" vertex="1">
          <mxGeometry x="400" y="280" width="70" height="30" as="geometry" />
        </mxCell>
        <mxCell id="juYu4V3Ow9eaGNVBh7fN-24" value="" style="edgeStyle=orthogonalEdgeStyle;rounded=0;orthogonalLoop=1;jettySize=auto;html=1;" parent="WIyWlLk6GJQsqaUBKTNV-1" source="juYu4V3Ow9eaGNVBh7fN-22" target="juYu4V3Ow9eaGNVBh7fN-23" edge="1">
          <mxGeometry relative="1" as="geometry" />
        </mxCell>
        <mxCell id="juYu4V3Ow9eaGNVBh7fN-22" value="Anak menyampaikan&amp;nbsp; hasil kepada ibu" style="rounded=0;whiteSpace=wrap;html=1;" parent="WIyWlLk6GJQsqaUBKTNV-1" vertex="1">
          <mxGeometry x="330" y="580" width="120" height="60" as="geometry" />
        </mxCell>
        <mxCell id="juYu4V3Ow9eaGNVBh7fN-23" value="Selesai" style="rounded=1;whiteSpace=wrap;html=1;" parent="WIyWlLk6GJQsqaUBKTNV-1" vertex="1">
          <mxGeometry x="330" y="820" width="120" height="60" as="geometry" />
        </mxCell>
        <mxCell id="Zj45orj_NK1SDxvDNARs-13" value="" style="edgeStyle=orthogonalEdgeStyle;rounded=0;orthogonalLoop=1;jettySize=auto;html=1;" edge="1" parent="WIyWlLk6GJQsqaUBKTNV-1" source="Zj45orj_NK1SDxvDNARs-0" target="juYu4V3Ow9eaGNVBh7fN-4">
          <mxGeometry relative="1" as="geometry">
            <Array as="points">
              <mxPoint x="220" y="215" />
            </Array>
          </mxGeometry>
        </mxCell>
        <mxCell id="Zj45orj_NK1SDxvDNARs-14" value="" style="edgeStyle=orthogonalEdgeStyle;rounded=0;orthogonalLoop=1;jettySize=auto;html=1;" edge="1" parent="WIyWlLk6GJQsqaUBKTNV-1" source="Zj45orj_NK1SDxvDNARs-0" target="Zj45orj_NK1SDxvDNARs-1">
          <mxGeometry relative="1" as="geometry" />
        </mxCell>
        <mxCell id="Zj45orj_NK1SDxvDNARs-0" value="Anak mencari telur" style="rhombus;whiteSpace=wrap;html=1;" vertex="1" parent="WIyWlLk6GJQsqaUBKTNV-1">
          <mxGeometry x="340" y="160" width="100" height="110" as="geometry" />
        </mxCell>
        <mxCell id="Zj45orj_NK1SDxvDNARs-15" value="" style="edgeStyle=orthogonalEdgeStyle;rounded=0;orthogonalLoop=1;jettySize=auto;html=1;" edge="1" parent="WIyWlLk6GJQsqaUBKTNV-1" source="Zj45orj_NK1SDxvDNARs-1" target="juYu4V3Ow9eaGNVBh7fN-7">
          <mxGeometry relative="1" as="geometry" />
        </mxCell>
        <mxCell id="Zj45orj_NK1SDxvDNARs-21" style="edgeStyle=orthogonalEdgeStyle;rounded=0;orthogonalLoop=1;jettySize=auto;html=1;exitX=0.5;exitY=1;exitDx=0;exitDy=0;entryX=0.5;entryY=0;entryDx=0;entryDy=0;" edge="1" parent="WIyWlLk6GJQsqaUBKTNV-1" source="Zj45orj_NK1SDxvDNARs-1" target="juYu4V3Ow9eaGNVBh7fN-22">
          <mxGeometry relative="1" as="geometry" />
        </mxCell>
        <mxCell id="Zj45orj_NK1SDxvDNARs-1" value="Anak mencari susu" style="rhombus;whiteSpace=wrap;html=1;" vertex="1" parent="WIyWlLk6GJQsqaUBKTNV-1">
          <mxGeometry x="340" y="350" width="100" height="110" as="geometry" />
        </mxCell>
        <mxCell id="Zj45orj_NK1SDxvDNARs-5" value="" style="rounded=0;html=1;jettySize=auto;orthogonalLoop=1;fontSize=11;endArrow=block;endFill=0;endSize=8;strokeWidth=1;shadow=0;labelBackgroundColor=none;edgeStyle=orthogonalEdgeStyle;" edge="1" parent="WIyWlLk6GJQsqaUBKTNV-1" source="WIyWlLk6GJQsqaUBKTNV-3" target="E4w3K78yoinszG3SQvMn-0">
          <mxGeometry relative="1" as="geometry">
            <mxPoint x="220" y="170" as="targetPoint" />
            <mxPoint x="220" y="60" as="sourcePoint" />
          </mxGeometry>
        </mxCell>
        <mxCell id="Zj45orj_NK1SDxvDNARs-11" value="" style="edgeStyle=orthogonalEdgeStyle;rounded=0;orthogonalLoop=1;jettySize=auto;html=1;entryX=0;entryY=0.5;entryDx=0;entryDy=0;" edge="1" parent="WIyWlLk6GJQsqaUBKTNV-1" source="E4w3K78yoinszG3SQvMn-0" target="juYu4V3Ow9eaGNVBh7fN-0">
          <mxGeometry relative="1" as="geometry">
            <mxPoint x="580" y="50" as="targetPoint" />
          </mxGeometry>
        </mxCell>
        <mxCell id="E4w3K78yoinszG3SQvMn-0" value="Ibu memberikan instruksi untuk membeli 1 botol susu serta 6&amp;nbsp; biji telur&amp;nbsp;" style="rounded=0;whiteSpace=wrap;html=1;" parent="WIyWlLk6GJQsqaUBKTNV-1" vertex="1">
          <mxGeometry x="190" y="10" width="120" height="80" as="geometry" />
        </mxCell>
        <mxCell id="Zj45orj_NK1SDxvDNARs-7" value="ada&lt;br&gt;" style="text;html=1;align=center;verticalAlign=middle;resizable=0;points=[];autosize=1;strokeColor=none;fillColor=none;" vertex="1" parent="WIyWlLk6GJQsqaUBKTNV-1">
          <mxGeometry x="260" y="180" width="40" height="30" as="geometry" />
        </mxCell>
        <mxCell id="Zj45orj_NK1SDxvDNARs-8" value="ada" style="text;html=1;align=center;verticalAlign=middle;resizable=0;points=[];autosize=1;strokeColor=none;fillColor=none;" vertex="1" parent="WIyWlLk6GJQsqaUBKTNV-1">
          <mxGeometry x="470" y="360" width="40" height="30" as="geometry" />
        </mxCell>
        <mxCell id="Zj45orj_NK1SDxvDNARs-23" value="tidak ada" style="text;html=1;align=center;verticalAlign=middle;resizable=0;points=[];autosize=1;strokeColor=none;fillColor=none;" vertex="1" parent="WIyWlLk6GJQsqaUBKTNV-1">
          <mxGeometry x="320" y="500" width="70" height="30" as="geometry" />
        </mxCell>
      </root>
    </mxGraphModel>
  </diagram>
</mxfile>
